<svg width="28" height="22" viewBox="0 0 28 22" fill="none" xmlns="http://www.w3.org/2000/svg">
<path fill-rule="evenodd" clip-rule="evenodd" d="M27.545 6.75677L27.5788 3.52594C27.5892 2.5225 27.488 2.15842 27.2969 1.78891C27.1042 1.42087 26.8192 1.12988 26.4553 0.929571C26.0899 0.730744 25.728 0.62196 24.7245 0.611481L3.4947 0.389781C2.49126 0.379302 2.12718 0.480506 1.75767 0.671657C1.38963 0.864325 1.09864 1.1493 0.89833 1.51323C0.699504 1.87867 0.590717 2.24056 0.580239 3.244L0.5465 6.47483C0.536021 7.47827 0.637226 7.84235 0.828377 8.21186C1.02105 8.5799 1.30602 8.87089 1.66995 9.0712C2.03539 9.27003 2.39728 9.37881 3.40072 9.38929L24.6306 9.61099C25.634 9.62147 25.9981 9.52027 26.3676 9.32911C26.732 9.1411 27.0314 8.84788 27.2269 8.48754C27.4258 8.1221 27.5345 7.76021 27.545 6.75677ZM27.4197 18.7561L27.4535 15.5253C27.4639 14.5218 27.3627 14.1578 27.1716 13.7883C26.9789 13.4202 26.6939 13.1292 26.33 12.9289C25.9646 12.7301 25.6027 12.6213 24.5992 12.6108L3.3694 12.3891C2.36595 12.3786 2.00187 12.4799 1.63236 12.671C1.26432 12.8637 0.973335 13.1486 0.773023 13.5126C0.574196 13.878 0.46541 14.2399 0.454931 15.2433L0.421192 18.4742C0.410713 19.4776 0.511919 19.8417 0.70307 20.2112C0.895738 20.5792 1.18071 20.8702 1.54464 21.0705C1.91008 21.2694 2.27197 21.3782 3.27541 21.3886L24.5053 21.6103C25.5087 21.6208 25.8728 21.5196 26.2423 21.3285C26.6066 21.1404 26.906 20.8472 27.1016 20.4869C27.3005 20.1214 27.4092 19.7596 27.4197 18.7561ZM24.5777 3.61011L3.57887 3.39082L3.54754 6.39066L24.5464 6.60995L24.5777 3.61011ZM3.42223 18.39L3.45356 15.3902L24.4524 15.6095L24.4211 18.6093L3.42223 18.39Z" fill="#1DA7F4"/>
</svg>
